<?xml version="1.0" encoding="UTF-8" standalone="no"?>
<!-- Created with Inkscape (http://www.inkscape.org/) -->

<svg
   xmlns:dc="http://purl.org/dc/elements/1.1/"
   xmlns:cc="http://creativecommons.org/ns#"
   xmlns:rdf="http://www.w3.org/1999/02/22-rdf-syntax-ns#"
   xmlns:svg="http://www.w3.org/2000/svg"
   xmlns="http://www.w3.org/2000/svg"
   xmlns:sodipodi="http://sodipodi.sourceforge.net/DTD/sodipodi-0.dtd"
   xmlns:inkscape="http://www.inkscape.org/namespaces/inkscape"
   width="744.09448819"
   height="1052.3622047"
   id="svg2"
   version="1.1"
   inkscape:version="0.48.4 r9939"
   sodipodi:docname="wallpaper.svg">
  <defs
     id="defs4">
    <inkscape:perspective
       sodipodi:type="inkscape:persp3d"
       inkscape:vp_x="0 : 526.18109 : 1"
       inkscape:vp_y="0 : 1000 : 0"
       inkscape:vp_z="744.09448 : 526.18109 : 1"
       inkscape:persp3d-origin="372.04724 : 350.78739 : 1"
       id="perspective3013" />
  </defs>
  <sodipodi:namedview
     id="base"
     pagecolor="#ffffff"
     bordercolor="#666666"
     borderopacity="1.0"
     inkscape:pageopacity="0.0"
     inkscape:pageshadow="2"
     inkscape:zoom="0.01"
     inkscape:cx="32182.66"
     inkscape:cy="-10220.314"
     inkscape:document-units="px"
     inkscape:current-layer="layer1"
     showgrid="false"
     inkscape:window-width="1375"
     inkscape:window-height="876"
     inkscape:window-x="65"
     inkscape:window-y="24"
     inkscape:window-maximized="1" />
  <metadata
     id="metadata7">
    <rdf:RDF>
      <cc:Work
         rdf:about="">
        <dc:format>image/svg+xml</dc:format>
        <dc:type
           rdf:resource="http://purl.org/dc/dcmitype/StillImage" />
        <dc:title />
      </cc:Work>
    </rdf:RDF>
  </metadata>
  <g
     inkscape:label="Layer 1"
     inkscape:groupmode="layer"
     id="layer1">
    <rect
       style="fill:#00ffff;fill-opacity:1"
       id="rect3029"
       width="19233.305"
       height="3570.8892"
       x="-8555.9922"
       y="362.93307" />
    <path
       sodipodi:type="arc"
       style="fill:#ffffff;fill-opacity:1"
       id="path3031"
       sodipodi:cx="-7230.167"
       sodipodi:cy="1644.5641"
       sodipodi:rx="689.42914"
       sodipodi:ry="609.87958"
       d="m -6540.7379,1644.5641 a 689.42914,609.87958 0 1 1 -1378.8582,0 689.42914,609.87958 0 1 1 1378.8582,0 z" />
    <path
       sodipodi:type="arc"
       style="fill:#ffffff;fill-opacity:1"
       id="path3035"
       sodipodi:cx="-6487.7046"
       sodipodi:cy="1176.1058"
       sodipodi:rx="724.78442"
       sodipodi:ry="548.00775"
       d="m -5762.9202,1176.1058 a 724.78442,548.00775 0 1 1 -1449.5688,0 724.78442,548.00775 0 1 1 1449.5688,0 z" />
    <path
       sodipodi:type="arc"
       style="fill:#ffffff;fill-opacity:1"
       id="path3037"
       sodipodi:cx="-6045.7632"
       sodipodi:cy="2033.4729"
       sodipodi:rx="1113.6932"
       sodipodi:ry="486.13593"
       d="m -4932.0699,2033.4729 a 1113.6932,486.13593 0 1 1 -2227.3865,0 1113.6932,486.13593 0 1 1 2227.3865,0 z" />
    <path
       sodipodi:type="arc"
       style="fill:#ffffff;fill-opacity:1"
       id="path3039"
       sodipodi:cx="-2059.4485"
       sodipodi:cy="1644.5641"
       sodipodi:rx="945.75531"
       sodipodi:ry="822.01166"
       d="m -1113.6932,1644.5641 a 945.75531,822.01166 0 1 1 -1891.5106,0 945.75531,822.01166 0 1 1 1891.5106,0 z" />
    <path
       sodipodi:type="arc"
       style="fill:#ffffff;fill-opacity:1"
       id="path3041"
       sodipodi:cx="-795.49512"
       sodipodi:cy="1591.5311"
       sodipodi:rx="1237.4369"
       sodipodi:ry="822.01166"
       d="m 441.94177,1591.5311 a 1237.4369,822.01166 0 1 1 -2474.87377,0 1237.4369,822.01166 0 1 1 2474.87377,0 z" />
    <path
       sodipodi:type="arc"
       style="fill:#ffffff;fill-opacity:1"
       id="path3043"
       sodipodi:cx="1582.1514"
       sodipodi:cy="1494.304"
       sodipodi:rx="468.45825"
       sodipodi:ry="441.94174"
       d="m 2050.6096,1494.304 a 468.45825,441.94174 0 1 1 -936.9165,0 468.45825,441.94174 0 1 1 936.9165,0 z" />
    <path
       sodipodi:type="arc"
       style="fill:#ffffff;fill-opacity:1"
       id="path3045"
       sodipodi:cx="2192.031"
       sodipodi:cy="1485.4651"
       sodipodi:rx="494.97476"
       sodipodi:ry="433.10291"
       d="m 2687.0058,1485.4651 a 494.97476,433.10291 0 1 1 -989.9496,0 494.97476,433.10291 0 1 1 989.9496,0 z" />
    <path
       sodipodi:type="arc"
       style="fill:#ffffff;fill-opacity:1"
       id="path3049"
       sodipodi:cx="1732.4116"
       sodipodi:cy="2006.9563"
       sodipodi:rx="441.94174"
       sodipodi:ry="282.84271"
       d="m 2174.3534,2006.9563 a 441.94174,282.84271 0 1 1 -883.8835,0 441.94174,282.84271 0 1 1 883.8835,0 z" />
    <path
       sodipodi:type="arc"
       style="fill:#ffffff;fill-opacity:1"
       id="path3051"
       sodipodi:cx="3694.6331"
       sodipodi:cy="1732.9525"
       sodipodi:rx="760.13977"
       sodipodi:ry="662.9126"
       d="m 4454.7728,1732.9525 a 760.13977,662.9126 0 1 1 -1520.2795,0 760.13977,662.9126 0 1 1 1520.2795,0 z" />
    <path
       sodipodi:type="arc"
       style="fill:#ffffff;fill-opacity:1"
       id="path3053"
       sodipodi:cx="4198.4463"
       sodipodi:cy="2077.667"
       sodipodi:rx="680.59027"
       sodipodi:ry="689.42914"
       d="m 4879.0366,2077.667 a 680.59027,689.42914 0 1 1 -1361.1806,0 680.59027,689.42914 0 1 1 1361.1806,0 z" />
    <path
       sodipodi:type="arc"
       style="fill:#ffffff;fill-opacity:1"
       id="path3055"
       sodipodi:cx="4481.2891"
       sodipodi:cy="1547.3369"
       sodipodi:rx="1246.2758"
       sodipodi:ry="318.19806"
       d="m 5727.5648,1547.3369 a 1246.2758,318.19806 0 1 1 -2492.5515,0 1246.2758,318.19806 0 1 1 2492.5515,0 z" />
    <path
       sodipodi:type="arc"
       style="fill:#ffffff;fill-opacity:1"
       id="path3057"
       sodipodi:cx="6708.6758"
       sodipodi:cy="2051.1504"
       sodipodi:rx="786.65631"
       sodipodi:ry="804.33398"
       d="m 7495.3321,2051.1504 a 786.65631,804.33398 0 1 1 -1573.3126,0 786.65631,804.33398 0 1 1 1573.3126,0 z" />
    <path
       sodipodi:type="arc"
       style="fill:#ffffff;fill-opacity:1"
       id="path3059"
       sodipodi:cx="7698.625"
       sodipodi:cy="1900.8904"
       sodipodi:rx="1051.8213"
       sodipodi:ry="689.42914"
       d="m 8750.4463,1900.8904 a 1051.8213,689.42914 0 1 1 -2103.6426,0 1051.8213,689.42914 0 1 1 2103.6426,0 z" />
    <path
       sodipodi:type="arc"
       style="fill:#ffffff;fill-opacity:1"
       id="path3061"
       sodipodi:cx="7239.0059"
       sodipodi:cy="1158.4282"
       sodipodi:rx="1122.532"
       sodipodi:ry="565.68542"
       d="m 8361.5378,1158.4282 a 1122.532,565.68542 0 1 1 -2245.0639,0 1122.532,565.68542 0 1 1 2245.0639,0 z" />
    <rect
       style="fill:#00ffff;fill-opacity:1"
       id="rect3029-7"
       width="19233.305"
       height="3570.8892"
       x="10363.099"
       y="321.51178" />
    <path
       transform="translate(18713.025,-76.77665)"
       sodipodi:type="arc"
       style="fill:#ffffff;fill-opacity:1"
       id="path3031-7"
       sodipodi:cx="-7230.167"
       sodipodi:cy="1644.5641"
       sodipodi:rx="689.42914"
       sodipodi:ry="609.87958"
       d="m -6540.7379,1644.5641 a 689.42914,609.87958 0 1 1 -1378.8582,0 689.42914,609.87958 0 1 1 1378.8582,0 z" />
    <path
       transform="translate(18713.025,-76.77665)"
       sodipodi:type="arc"
       style="fill:#ffffff;fill-opacity:1"
       id="path3035-1"
       sodipodi:cx="-6487.7046"
       sodipodi:cy="1176.1058"
       sodipodi:rx="724.78442"
       sodipodi:ry="548.00775"
       d="m -5762.9202,1176.1058 a 724.78442,548.00775 0 1 1 -1449.5688,0 724.78442,548.00775 0 1 1 1449.5688,0 z" />
    <path
       transform="translate(18713.025,-76.77665)"
       sodipodi:type="arc"
       style="fill:#ffffff;fill-opacity:1"
       id="path3037-6"
       sodipodi:cx="-6045.7632"
       sodipodi:cy="2033.4729"
       sodipodi:rx="1113.6932"
       sodipodi:ry="486.13593"
       d="m -4932.0699,2033.4729 a 1113.6932,486.13593 0 1 1 -2227.3865,0 1113.6932,486.13593 0 1 1 2227.3865,0 z" />
    <path
       transform="translate(18713.025,-76.77665)"
       sodipodi:type="arc"
       style="fill:#ffffff;fill-opacity:1"
       id="path3039-0"
       sodipodi:cx="-2059.4485"
       sodipodi:cy="1644.5641"
       sodipodi:rx="945.75531"
       sodipodi:ry="822.01166"
       d="m -1113.6932,1644.5641 a 945.75531,822.01166 0 1 1 -1891.5106,0 945.75531,822.01166 0 1 1 1891.5106,0 z" />
    <path
       transform="translate(18713.025,-76.77665)"
       sodipodi:type="arc"
       style="fill:#ffffff;fill-opacity:1"
       id="path3041-6"
       sodipodi:cx="-795.49512"
       sodipodi:cy="1591.5311"
       sodipodi:rx="1237.4369"
       sodipodi:ry="822.01166"
       d="m 441.94177,1591.5311 a 1237.4369,822.01166 0 1 1 -2474.87377,0 1237.4369,822.01166 0 1 1 2474.87377,0 z" />
    <path
       transform="translate(18713.025,-76.77665)"
       sodipodi:type="arc"
       style="fill:#ffffff;fill-opacity:1"
       id="path3043-8"
       sodipodi:cx="1582.1514"
       sodipodi:cy="1494.304"
       sodipodi:rx="468.45825"
       sodipodi:ry="441.94174"
       d="m 2050.6096,1494.304 a 468.45825,441.94174 0 1 1 -936.9165,0 468.45825,441.94174 0 1 1 936.9165,0 z" />
    <path
       transform="translate(18713.025,-76.77665)"
       sodipodi:type="arc"
       style="fill:#ffffff;fill-opacity:1"
       id="path3045-1"
       sodipodi:cx="2192.031"
       sodipodi:cy="1485.4651"
       sodipodi:rx="494.97476"
       sodipodi:ry="433.10291"
       d="m 2687.0058,1485.4651 a 494.97476,433.10291 0 1 1 -989.9496,0 494.97476,433.10291 0 1 1 989.9496,0 z" />
    <path
       transform="translate(18713.025,-76.77665)"
       sodipodi:type="arc"
       style="fill:#ffffff;fill-opacity:1"
       id="path3049-2"
       sodipodi:cx="1732.4116"
       sodipodi:cy="2006.9563"
       sodipodi:rx="441.94174"
       sodipodi:ry="282.84271"
       d="m 2174.3534,2006.9563 a 441.94174,282.84271 0 1 1 -883.8835,0 441.94174,282.84271 0 1 1 883.8835,0 z" />
    <path
       transform="translate(18713.025,-76.77665)"
       sodipodi:type="arc"
       style="fill:#ffffff;fill-opacity:1"
       id="path3051-9"
       sodipodi:cx="3694.6331"
       sodipodi:cy="1732.9525"
       sodipodi:rx="760.13977"
       sodipodi:ry="662.9126"
       d="m 4454.7728,1732.9525 a 760.13977,662.9126 0 1 1 -1520.2795,0 760.13977,662.9126 0 1 1 1520.2795,0 z" />
    <path
       transform="translate(18713.025,-76.77665)"
       sodipodi:type="arc"
       style="fill:#ffffff;fill-opacity:1"
       id="path3053-9"
       sodipodi:cx="4198.4463"
       sodipodi:cy="2077.667"
       sodipodi:rx="680.59027"
       sodipodi:ry="689.42914"
       d="m 4879.0366,2077.667 a 680.59027,689.42914 0 1 1 -1361.1806,0 680.59027,689.42914 0 1 1 1361.1806,0 z" />
    <path
       transform="translate(18713.025,-76.77665)"
       sodipodi:type="arc"
       style="fill:#ffffff;fill-opacity:1"
       id="path3055-0"
       sodipodi:cx="4481.2891"
       sodipodi:cy="1547.3369"
       sodipodi:rx="1246.2758"
       sodipodi:ry="318.19806"
       d="m 5727.5648,1547.3369 a 1246.2758,318.19806 0 1 1 -2492.5515,0 1246.2758,318.19806 0 1 1 2492.5515,0 z" />
    <path
       transform="translate(18713.025,-76.77665)"
       sodipodi:type="arc"
       style="fill:#ffffff;fill-opacity:1"
       id="path3057-5"
       sodipodi:cx="6708.6758"
       sodipodi:cy="2051.1504"
       sodipodi:rx="786.65631"
       sodipodi:ry="804.33398"
       d="m 7495.3321,2051.1504 a 786.65631,804.33398 0 1 1 -1573.3126,0 786.65631,804.33398 0 1 1 1573.3126,0 z" />
    <path
       transform="translate(18713.025,-76.77665)"
       sodipodi:type="arc"
       style="fill:#ffffff;fill-opacity:1"
       id="path3059-3"
       sodipodi:cx="7698.625"
       sodipodi:cy="1900.8904"
       sodipodi:rx="1051.8213"
       sodipodi:ry="689.42914"
       d="m 8750.4463,1900.8904 a 1051.8213,689.42914 0 1 1 -2103.6426,0 1051.8213,689.42914 0 1 1 2103.6426,0 z" />
    <path
       transform="translate(18713.025,-76.77665)"
       sodipodi:type="arc"
       style="fill:#ffffff;fill-opacity:1"
       id="path3061-4"
       sodipodi:cx="7239.0059"
       sodipodi:cy="1158.4282"
       sodipodi:rx="1122.532"
       sodipodi:ry="565.68542"
       d="m 8361.5378,1158.4282 a 1122.532,565.68542 0 1 1 -2245.0639,0 1122.532,565.68542 0 1 1 2245.0639,0 z" />
    <rect
       style="fill:#00ffff;fill-opacity:1"
       id="rect3029-7-1"
       width="19233.305"
       height="3570.8892"
       x="29483.344"
       y="366.9176" />
    <path
       transform="translate(37833.274,-31.370827)"
       sodipodi:type="arc"
       style="fill:#ffffff;fill-opacity:1"
       id="path3031-7-0"
       sodipodi:cx="-7230.167"
       sodipodi:cy="1644.5641"
       sodipodi:rx="689.42914"
       sodipodi:ry="609.87958"
       d="m -6540.7379,1644.5641 a 689.42914,609.87958 0 1 1 -1378.8582,0 689.42914,609.87958 0 1 1 1378.8582,0 z" />
    <path
       transform="translate(37833.274,-31.370827)"
       sodipodi:type="arc"
       style="fill:#ffffff;fill-opacity:1"
       id="path3035-1-4"
       sodipodi:cx="-6487.7046"
       sodipodi:cy="1176.1058"
       sodipodi:rx="724.78442"
       sodipodi:ry="548.00775"
       d="m -5762.9202,1176.1058 a 724.78442,548.00775 0 1 1 -1449.5688,0 724.78442,548.00775 0 1 1 1449.5688,0 z" />
    <path
       transform="translate(37833.274,-31.370827)"
       sodipodi:type="arc"
       style="fill:#ffffff;fill-opacity:1"
       id="path3037-6-7"
       sodipodi:cx="-6045.7632"
       sodipodi:cy="2033.4729"
       sodipodi:rx="1113.6932"
       sodipodi:ry="486.13593"
       d="m -4932.0699,2033.4729 a 1113.6932,486.13593 0 1 1 -2227.3865,0 1113.6932,486.13593 0 1 1 2227.3865,0 z" />
    <path
       transform="translate(37833.274,-31.370827)"
       sodipodi:type="arc"
       style="fill:#ffffff;fill-opacity:1"
       id="path3039-0-7"
       sodipodi:cx="-2059.4485"
       sodipodi:cy="1644.5641"
       sodipodi:rx="945.75531"
       sodipodi:ry="822.01166"
       d="m -1113.6932,1644.5641 a 945.75531,822.01166 0 1 1 -1891.5106,0 945.75531,822.01166 0 1 1 1891.5106,0 z" />
    <path
       transform="translate(37833.274,-31.370827)"
       sodipodi:type="arc"
       style="fill:#ffffff;fill-opacity:1"
       id="path3041-6-4"
       sodipodi:cx="-795.49512"
       sodipodi:cy="1591.5311"
       sodipodi:rx="1237.4369"
       sodipodi:ry="822.01166"
       d="m 441.94177,1591.5311 a 1237.4369,822.01166 0 1 1 -2474.87377,0 1237.4369,822.01166 0 1 1 2474.87377,0 z" />
    <path
       transform="translate(37833.274,-31.370827)"
       sodipodi:type="arc"
       style="fill:#ffffff;fill-opacity:1"
       id="path3043-8-1"
       sodipodi:cx="1582.1514"
       sodipodi:cy="1494.304"
       sodipodi:rx="468.45825"
       sodipodi:ry="441.94174"
       d="m 2050.6096,1494.304 a 468.45825,441.94174 0 1 1 -936.9165,0 468.45825,441.94174 0 1 1 936.9165,0 z" />
    <path
       transform="translate(37833.274,-31.370827)"
       sodipodi:type="arc"
       style="fill:#ffffff;fill-opacity:1"
       id="path3045-1-6"
       sodipodi:cx="2192.031"
       sodipodi:cy="1485.4651"
       sodipodi:rx="494.97476"
       sodipodi:ry="433.10291"
       d="m 2687.0058,1485.4651 a 494.97476,433.10291 0 1 1 -989.9496,0 494.97476,433.10291 0 1 1 989.9496,0 z" />
    <path
       transform="translate(37833.274,-31.370827)"
       sodipodi:type="arc"
       style="fill:#ffffff;fill-opacity:1"
       id="path3049-2-3"
       sodipodi:cx="1732.4116"
       sodipodi:cy="2006.9563"
       sodipodi:rx="441.94174"
       sodipodi:ry="282.84271"
       d="m 2174.3534,2006.9563 a 441.94174,282.84271 0 1 1 -883.8835,0 441.94174,282.84271 0 1 1 883.8835,0 z" />
    <path
       transform="translate(37833.274,-31.370827)"
       sodipodi:type="arc"
       style="fill:#ffffff;fill-opacity:1"
       id="path3051-9-9"
       sodipodi:cx="3694.6331"
       sodipodi:cy="1732.9525"
       sodipodi:rx="760.13977"
       sodipodi:ry="662.9126"
       d="m 4454.7728,1732.9525 a 760.13977,662.9126 0 1 1 -1520.2795,0 760.13977,662.9126 0 1 1 1520.2795,0 z" />
    <path
       transform="translate(37833.274,-31.370827)"
       sodipodi:type="arc"
       style="fill:#ffffff;fill-opacity:1"
       id="path3053-9-6"
       sodipodi:cx="4198.4463"
       sodipodi:cy="2077.667"
       sodipodi:rx="680.59027"
       sodipodi:ry="689.42914"
       d="m 4879.0366,2077.667 a 680.59027,689.42914 0 1 1 -1361.1806,0 680.59027,689.42914 0 1 1 1361.1806,0 z" />
    <path
       transform="translate(37833.274,-31.370827)"
       sodipodi:type="arc"
       style="fill:#ffffff;fill-opacity:1"
       id="path3055-0-3"
       sodipodi:cx="4481.2891"
       sodipodi:cy="1547.3369"
       sodipodi:rx="1246.2758"
       sodipodi:ry="318.19806"
       d="m 5727.5648,1547.3369 a 1246.2758,318.19806 0 1 1 -2492.5515,0 1246.2758,318.19806 0 1 1 2492.5515,0 z" />
    <path
       transform="translate(37833.274,-31.370827)"
       sodipodi:type="arc"
       style="fill:#ffffff;fill-opacity:1"
       id="path3057-5-1"
       sodipodi:cx="6708.6758"
       sodipodi:cy="2051.1504"
       sodipodi:rx="786.65631"
       sodipodi:ry="804.33398"
       d="m 7495.3321,2051.1504 a 786.65631,804.33398 0 1 1 -1573.3126,0 786.65631,804.33398 0 1 1 1573.3126,0 z" />
    <path
       transform="translate(37833.274,-31.370827)"
       sodipodi:type="arc"
       style="fill:#ffffff;fill-opacity:1"
       id="path3059-3-7"
       sodipodi:cx="7698.625"
       sodipodi:cy="1900.8904"
       sodipodi:rx="1051.8213"
       sodipodi:ry="689.42914"
       d="m 8750.4463,1900.8904 a 1051.8213,689.42914 0 1 1 -2103.6426,0 1051.8213,689.42914 0 1 1 2103.6426,0 z" />
    <path
       transform="translate(37833.274,-31.370827)"
       sodipodi:type="arc"
       style="fill:#ffffff;fill-opacity:1"
       id="path3061-4-7"
       sodipodi:cx="7239.0059"
       sodipodi:cy="1158.4282"
       sodipodi:rx="1122.532"
       sodipodi:ry="565.68542"
       d="m 8361.5378,1158.4282 a 1122.532,565.68542 0 1 1 -2245.0639,0 1122.532,565.68542 0 1 1 2245.0639,0 z" />
    <rect
       style="fill:#00ffff;fill-opacity:1"
       id="rect3029-7-13"
       width="19233.305"
       height="3570.8892"
       x="48627.367"
       y="437.10791" />
    <path
       transform="translate(56977.29,38.819466)"
       sodipodi:type="arc"
       style="fill:#ffffff;fill-opacity:1"
       id="path3031-7-6"
       sodipodi:cx="-7230.167"
       sodipodi:cy="1644.5641"
       sodipodi:rx="689.42914"
       sodipodi:ry="609.87958"
       d="m -6540.7379,1644.5641 a 689.42914,609.87958 0 1 1 -1378.8582,0 689.42914,609.87958 0 1 1 1378.8582,0 z" />
    <path
       transform="translate(56977.29,38.819466)"
       sodipodi:type="arc"
       style="fill:#ffffff;fill-opacity:1"
       id="path3035-1-5"
       sodipodi:cx="-6487.7046"
       sodipodi:cy="1176.1058"
       sodipodi:rx="724.78442"
       sodipodi:ry="548.00775"
       d="m -5762.9202,1176.1058 a 724.78442,548.00775 0 1 1 -1449.5688,0 724.78442,548.00775 0 1 1 1449.5688,0 z" />
    <path
       transform="translate(56977.29,38.819466)"
       sodipodi:type="arc"
       style="fill:#ffffff;fill-opacity:1"
       id="path3037-6-1"
       sodipodi:cx="-6045.7632"
       sodipodi:cy="2033.4729"
       sodipodi:rx="1113.6932"
       sodipodi:ry="486.13593"
       d="m -4932.0699,2033.4729 a 1113.6932,486.13593 0 1 1 -2227.3865,0 1113.6932,486.13593 0 1 1 2227.3865,0 z" />
    <path
       transform="translate(56977.29,38.819466)"
       sodipodi:type="arc"
       style="fill:#ffffff;fill-opacity:1"
       id="path3039-0-5"
       sodipodi:cx="-2059.4485"
       sodipodi:cy="1644.5641"
       sodipodi:rx="945.75531"
       sodipodi:ry="822.01166"
       d="m -1113.6932,1644.5641 a 945.75531,822.01166 0 1 1 -1891.5106,0 945.75531,822.01166 0 1 1 1891.5106,0 z" />
    <path
       transform="translate(56977.29,38.819466)"
       sodipodi:type="arc"
       style="fill:#ffffff;fill-opacity:1"
       id="path3041-6-8"
       sodipodi:cx="-795.49512"
       sodipodi:cy="1591.5311"
       sodipodi:rx="1237.4369"
       sodipodi:ry="822.01166"
       d="m 441.94177,1591.5311 a 1237.4369,822.01166 0 1 1 -2474.87377,0 1237.4369,822.01166 0 1 1 2474.87377,0 z" />
    <path
       transform="translate(56977.29,38.819466)"
       sodipodi:type="arc"
       style="fill:#ffffff;fill-opacity:1"
       id="path3043-8-19"
       sodipodi:cx="1582.1514"
       sodipodi:cy="1494.304"
       sodipodi:rx="468.45825"
       sodipodi:ry="441.94174"
       d="m 2050.6096,1494.304 a 468.45825,441.94174 0 1 1 -936.9165,0 468.45825,441.94174 0 1 1 936.9165,0 z" />
    <path
       transform="translate(56977.29,38.819466)"
       sodipodi:type="arc"
       style="fill:#ffffff;fill-opacity:1"
       id="path3045-1-3"
       sodipodi:cx="2192.031"
       sodipodi:cy="1485.4651"
       sodipodi:rx="494.97476"
       sodipodi:ry="433.10291"
       d="m 2687.0058,1485.4651 a 494.97476,433.10291 0 1 1 -989.9496,0 494.97476,433.10291 0 1 1 989.9496,0 z" />
    <path
       transform="translate(56977.29,38.819466)"
       sodipodi:type="arc"
       style="fill:#ffffff;fill-opacity:1"
       id="path3049-2-1"
       sodipodi:cx="1732.4116"
       sodipodi:cy="2006.9563"
       sodipodi:rx="441.94174"
       sodipodi:ry="282.84271"
       d="m 2174.3534,2006.9563 a 441.94174,282.84271 0 1 1 -883.8835,0 441.94174,282.84271 0 1 1 883.8835,0 z" />
    <path
       transform="translate(56977.29,38.819466)"
       sodipodi:type="arc"
       style="fill:#ffffff;fill-opacity:1"
       id="path3051-9-3"
       sodipodi:cx="3694.6331"
       sodipodi:cy="1732.9525"
       sodipodi:rx="760.13977"
       sodipodi:ry="662.9126"
       d="m 4454.7728,1732.9525 a 760.13977,662.9126 0 1 1 -1520.2795,0 760.13977,662.9126 0 1 1 1520.2795,0 z" />
    <path
       transform="translate(56977.29,38.819466)"
       sodipodi:type="arc"
       style="fill:#ffffff;fill-opacity:1"
       id="path3053-9-7"
       sodipodi:cx="4198.4463"
       sodipodi:cy="2077.667"
       sodipodi:rx="680.59027"
       sodipodi:ry="689.42914"
       d="m 4879.0366,2077.667 a 680.59027,689.42914 0 1 1 -1361.1806,0 680.59027,689.42914 0 1 1 1361.1806,0 z" />
    <path
       transform="translate(56977.29,38.819466)"
       sodipodi:type="arc"
       style="fill:#ffffff;fill-opacity:1"
       id="path3055-0-8"
       sodipodi:cx="4481.2891"
       sodipodi:cy="1547.3369"
       sodipodi:rx="1246.2758"
       sodipodi:ry="318.19806"
       d="m 5727.5648,1547.3369 a 1246.2758,318.19806 0 1 1 -2492.5515,0 1246.2758,318.19806 0 1 1 2492.5515,0 z" />
    <path
       transform="translate(56977.29,38.819466)"
       sodipodi:type="arc"
       style="fill:#ffffff;fill-opacity:1"
       id="path3057-5-8"
       sodipodi:cx="6708.6758"
       sodipodi:cy="2051.1504"
       sodipodi:rx="786.65631"
       sodipodi:ry="804.33398"
       d="m 7495.3321,2051.1504 a 786.65631,804.33398 0 1 1 -1573.3126,0 786.65631,804.33398 0 1 1 1573.3126,0 z" />
    <path
       transform="translate(56977.29,38.819466)"
       sodipodi:type="arc"
       style="fill:#ffffff;fill-opacity:1"
       id="path3059-3-8"
       sodipodi:cx="7698.625"
       sodipodi:cy="1900.8904"
       sodipodi:rx="1051.8213"
       sodipodi:ry="689.42914"
       d="m 8750.4463,1900.8904 a 1051.8213,689.42914 0 1 1 -2103.6426,0 1051.8213,689.42914 0 1 1 2103.6426,0 z" />
    <path
       transform="translate(56977.29,38.819466)"
       sodipodi:type="arc"
       style="fill:#ffffff;fill-opacity:1"
       id="path3061-4-2"
       sodipodi:cx="7239.0059"
       sodipodi:cy="1158.4282"
       sodipodi:rx="1122.532"
       sodipodi:ry="565.68542"
       d="m 8361.5378,1158.4282 a 1122.532,565.68542 0 1 1 -2245.0639,0 1122.532,565.68542 0 1 1 2245.0639,0 z" />
  </g>
</svg>
