<?xml version="1.0" encoding="UTF-8" standalone="no"?>
<!-- Created with Inkscape (http://www.inkscape.org/) -->

<svg
   xmlns:dc="http://purl.org/dc/elements/1.1/"
   xmlns:cc="http://creativecommons.org/ns#"
   xmlns:rdf="http://www.w3.org/1999/02/22-rdf-syntax-ns#"
   xmlns:svg="http://www.w3.org/2000/svg"
   xmlns="http://www.w3.org/2000/svg"
   xmlns:sodipodi="http://sodipodi.sourceforge.net/DTD/sodipodi-0.dtd"
   xmlns:inkscape="http://www.inkscape.org/namespaces/inkscape"
   width="744.09448819"
   height="1052.3622047"
   id="svg2"
   version="1.1"
   inkscape:version="0.48.4 r9939"
   sodipodi:docname="face.svg">
  <defs
     id="defs4" />
  <sodipodi:namedview
     id="base"
     pagecolor="#ffffff"
     bordercolor="#666666"
     borderopacity="1.0"
     inkscape:pageopacity="0.0"
     inkscape:pageshadow="2"
     inkscape:zoom="0.35"
     inkscape:cx="375"
     inkscape:cy="428.18224"
     inkscape:document-units="px"
     inkscape:current-layer="layer1"
     showgrid="false"
     inkscape:window-width="1375"
     inkscape:window-height="876"
     inkscape:window-x="65"
     inkscape:window-y="24"
     inkscape:window-maximized="1" />
  <metadata
     id="metadata7">
    <rdf:RDF>
      <cc:Work
         rdf:about="">
        <dc:format>image/svg+xml</dc:format>
        <dc:type
           rdf:resource="http://purl.org/dc/dcmitype/StillImage" />
        <dc:title></dc:title>
      </cc:Work>
    </rdf:RDF>
  </metadata>
  <g
     inkscape:label="Layer 1"
     inkscape:groupmode="layer"
     id="layer1">
    <path
       sodipodi:type="arc"
       style="fill:#00ffff;fill-opacity:1"
       id="path3109"
       sodipodi:cx="355.71429"
       sodipodi:cy="498.07648"
       sodipodi:rx="638.57141"
       sodipodi:ry="620"
       d="m 994.28571,498.07648 a 638.57141,620 0 1 1 -1277.14283,0 638.57141,620 0 1 1 1277.14283,0 z"
       transform="matrix(1.4879649,0,0,0.87997118,-150.71894,88.354959)"
       inkscape:export-filename="/home/morganc/jumper/face2.png"
       inkscape:export-xdpi="90"
       inkscape:export-ydpi="90" />
    <path
       sodipodi:type="arc"
       style="fill:#ffffff;fill-opacity:1"
       id="path3111"
       sodipodi:cx="72.85714"
       sodipodi:cy="252.36218"
       sodipodi:rx="72.85714"
       sodipodi:ry="68.571426"
       d="m 145.71428,252.36218 a 72.85714,68.571426 0 1 1 -145.71428,0 72.85714,68.571426 0 1 1 145.71428,0 z"
       transform="matrix(1.4879649,0,0,0.87997118,-19.290366,96.926388)" />
    <path
       transform="matrix(1.4879649,0,0,0.87997118,503.54796,78.641086)"
       sodipodi:type="arc"
       style="fill:#000000;fill-opacity:1"
       id="path3111-6"
       sodipodi:cx="72.85714"
       sodipodi:cy="252.36218"
       sodipodi:rx="72.85714"
       sodipodi:ry="68.571426"
       d="m 145.71428,252.36218 a 72.85714,68.571426 0 1 1 -145.71428,0 72.85714,68.571426 0 1 1 145.71428,0 z" />
    <path
       style="fill:#000000;stroke:#000000;stroke-width:1.14427543px;stroke-linecap:butt;stroke-linejoin:miter;stroke-opacity:1"
       d="m 718.24003,220.25802 -297.59297,-5.0284 0,188.56525 348.6089,2.51421 -17.00531,-193.59367 z"
       id="path3131"
       inkscape:connector-curvature="0" />
    <path
       style="fill:#000000;stroke:#000000;stroke-width:1.14427543px;stroke-linecap:butt;stroke-linejoin:miter;stroke-opacity:1"
       d="m 269.79996,229.74361 -297.592976,-5.0284 0,188.56525 348.608906,2.51421 -17.00531,-193.59366 z"
       id="path3131-4"
       inkscape:connector-curvature="0" />
    <path
       style="fill:#000000;stroke:#000000;stroke-width:1.14427543px;stroke-linecap:butt;stroke-linejoin:miter;stroke-opacity:1"
       d="m 163.87935,227.4577 395.37352,-7.54261 8.50265,30.17043 -403.87617,12.57103 z"
       id="path3158"
       inkscape:connector-curvature="0" />
    <path
       style="fill:#000000;stroke:#000000;stroke-width:1.32921469px;stroke-linecap:butt;stroke-linejoin:miter;stroke-opacity:1"
       d="M 4.2057909,280.14617 -306.26206,240.00859 -335.00907,275.12898 -1.5436161,322.79236 z"
       id="path3160-6"
       inkscape:connector-curvature="0" />
    <path
       style="fill:#000000;stroke:#000000;stroke-width:0.73274708px;stroke-linecap:butt;stroke-linejoin:miter;stroke-opacity:1"
       d="m 250.13079,714.43125 222.458,-10.16655 1.72448,22.87473 -225.90696,15.24984 z"
       id="path3182"
       inkscape:connector-curvature="0" />
    <path
       style="fill:#000000;stroke:#000000;stroke-width:1.32921469px;stroke-linecap:butt;stroke-linejoin:miter;stroke-opacity:1"
       d="m 744.67828,271.10788 310.46782,-40.13758 28.747,35.12039 -333.46541,47.66338 z"
       id="path3160-6-6"
       inkscape:connector-curvature="0" />
    <path
       style="fill:#000000;stroke:#000000;stroke-width:1.01860464px;stroke-linecap:butt;stroke-linejoin:miter;stroke-opacity:1"
       d="m 1183.7556,438.15409 -142.3585,-189.01499 14.4518,-30.55087 156.1429,201.48629 z"
       id="path3160-6-6-4"
       inkscape:connector-curvature="0" />
    <path
       style="fill:#000000;stroke:#000000;stroke-width:1.01860464px;stroke-linecap:butt;stroke-linejoin:miter;stroke-opacity:1"
       d="m -425.63258,447.8594 142.3585,-189.01499 -14.4518,-30.55087 -156.1429,201.48629 z"
       id="path3160-6-6-4-2"
       inkscape:connector-curvature="0" />
  </g>
</svg>
